<?xml version="1.0" encoding="utf-8"?>
<!-- Generator: Adobe Illustrator 21.0.0, SVG Export Plug-In . SVG Version: 6.00 Build 0)  -->
<svg version="1.1" id="Layer_1" xmlns="http://www.w3.org/2000/svg" xmlns:xlink="http://www.w3.org/1999/xlink" x="0px" y="0px"
	 viewBox="0 0 751.8 86.4" style="enable-background:new 0 0 751.8 86.4;" xml:space="preserve">
<style type="text/css">
	.st0{fill:#346094;}
	.st1{font-family:'ArialMT';}
	.st2{font-size:52.0648px;}
	.st3{fill:#00B0B9;}
	.st4{fill:#FFFFFF;}
	.st5{font-size:38.4204px;}
	.st6{letter-spacing:8;}
</style>
<g>
	<g>
		<g>
			<path class="st0" d="M120.8,59.4h-11.4v-36h11.4c12.5,0,19,7.3,19,17.9C139.7,52,133,59.4,120.8,59.4z M120.7,29.1h-4.5v24.6h4.4
				c7.5,0,12.1-3.9,12.1-12.3C132.7,33.1,127.9,29.1,120.7,29.1z"/>
			<path class="st0" d="M148.8,30c-2.1,0-3.7-1.5-3.7-3.5c0-2.1,1.7-3.6,3.7-3.6s3.7,1.5,3.7,3.6C152.5,28.5,150.9,30,148.8,30z
				 M145.7,59.4V34.2h6.2v25.1h-6.2V59.4z"/>
			<path class="st0" d="M167.8,68.8c-6.8,0-12-2.1-12-6.2c0-2.4,1.6-4.2,4.7-5.9c-1-0.8-1.5-1.7-1.5-2.8c0-1.4,1.1-2.8,3.2-4
				c-3-1.4-4.7-4.1-4.7-7.4c0-5.5,4.5-8.9,10.1-8.9c2.9,0,5.3,0.8,7.1,2.3l6.1-2.2l0.8,5L177,39c0.4,1,0.7,2.1,0.7,3.3
				c0,5.4-4.6,8.6-10,8.6c-0.7,0-1.5,0-2.1-0.1c-0.6,0.4-1,0.9-1,1.3c0,0.8,0.8,1,4.7,1.6l3.2,0.3c5.2,0.7,8.4,2.3,8.4,6.2
				C181.1,65.8,175.1,68.8,167.8,68.8z M163.9,58.2c-1.8,1.2-2.7,2.4-2.7,3.7c0,1.9,2.2,3.2,7,3.2c4.5,0,7-1.5,7-3.4
				c0-1.4-1.1-2.1-4.2-2.6l-3.4-0.4C166,58.5,165.1,58.4,163.9,58.2z M167.7,37.7c-2.8,0-4.4,2.1-4.4,4.9c0,2.6,1.7,4.6,4.4,4.6
				c2.8,0,4.4-2,4.4-4.7C172.2,39.7,170.4,37.7,167.7,37.7z"/>
			<path class="st0" d="M189,30c-2.1,0-3.7-1.5-3.7-3.5c0-2.1,1.7-3.6,3.7-3.6s3.7,1.5,3.7,3.6C192.7,28.5,191,30,189,30z
				 M185.8,59.4V34.2h6.2v25.1h-6.2V59.4z"/>
			<path class="st0" d="M208.2,59.8c-4.9,0-8.3-1.8-8.3-7.5v-13h-3.5v-5.1h3.5v-8l6.1-0.9v8.9h5.2l0.8,5.1h-5.9v11.9
				c0,2,0.9,3.1,3.3,3.1c0.7,0,1.4-0.1,2-0.2l0.8,5.3C211.2,59.6,210.1,59.8,208.2,59.8z"/>
			<path class="st0" d="M231.5,59.4l-0.5-3.3c-2,2.1-4.6,3.8-8.4,3.8c-4.3,0-7.1-2.6-7.1-7c0-6.1,5-8.7,15.2-9.7v-0.7
				c0-2.7-1.6-3.7-4.3-3.7c-2.9,0-5.7,0.8-8.4,2l-0.8-5c2.9-1.1,6-2,10-2c6.5,0,9.7,2.4,9.7,8.4v17.2H231.5z M230.6,46.8
				c-7.2,0.9-9,3-9,5.4c0,1.8,1.1,2.9,3.1,2.9c2.1,0,4.2-1,5.9-2.7V46.8z"/>
			<path class="st0" d="M243.3,59.4V22.8l6.2-1v37.6H243.3z"/>
			<path class="st0" d="M283.5,60c-10.4,0-17-7.3-17-18.5c0-11.1,6.7-18.6,17.2-18.6c4.1,0,7.2,0.9,9.8,2.6l-1,6.5
				c-2.3-1.8-5.1-3.2-8.6-3.2c-6.5,0-10.4,4.9-10.4,12.7s4.1,12.6,10.5,12.6c3.4,0,6.4-1.2,9.1-3.1l0.9,6
				C291.3,58.7,287.6,60,283.5,60z"/>
			<path class="st0" d="M309.5,59.9c-6.8,0-11.8-4.9-11.8-13.1s5-13.1,11.8-13.1c6.9,0,11.9,4.9,11.9,13.1S316.4,59.9,309.5,59.9z
				 M309.5,38.8c-3.7,0-5.7,3.3-5.7,8c0,4.6,2,8,5.7,8c3.9,0,5.8-3.3,5.8-8C315.3,42.2,313.3,38.8,309.5,38.8z"/>
			<path class="st0" d="M326.7,59.4V22.8l6.2-1v37.6H326.7z"/>
			<path class="st0" d="M339.9,59.4V22.8l6.2-1v37.6H339.9z"/>
			<path class="st0" d="M363.7,59.9c-7,0-12.3-4-12.3-13.1c0-8.2,4.9-13.1,11.5-13.1c7.5,0,10.9,5.7,10.9,12.8
				c0,0.5-0.1,1.1-0.1,1.5h-16.2c0.3,4.9,3,7,6.8,7c3.2,0,5.9-1.2,8.6-3.1l0.7,4.9C371.1,58.7,367.8,59.9,363.7,59.9z M357.7,44.1
				h10c-0.4-3.9-2-6.1-5-6.1C360.2,38,358.1,40,357.7,44.1z"/>
			<path class="st0" d="M389.5,59.8c-7,0-11.9-4.7-11.9-12.9c0-8.7,5.5-13.2,12.3-13.2c3.3,0,5.9,1,7.7,2.1l-0.9,5.6
				c-2-1.5-4-2.3-6.5-2.3c-3.7,0-6.3,2.7-6.3,7.7c0,5.2,2.9,7.7,6.5,7.7c2.2,0,4.3-0.6,6.6-2.4l0.8,5.4
				C395.4,59,392.8,59.8,389.5,59.8z"/>
			<path class="st0" d="M412.4,59.8c-4.9,0-8.3-1.8-8.3-7.5v-13h-3.5v-5.1h3.5v-8l6.1-0.9v8.9h5.2l0.8,5.1h-5.9v11.9
				c0,2,0.9,3.1,3.3,3.1c0.7,0,1.4-0.1,2-0.2l0.8,5.3C415.4,59.6,414.2,59.8,412.4,59.8z"/>
			<path class="st0" d="M424.5,30c-2.1,0-3.7-1.5-3.7-3.5c0-2.1,1.7-3.6,3.7-3.6s3.7,1.5,3.7,3.6C428.2,28.5,426.5,30,424.5,30z
				 M421.3,59.4V34.2h6.2v25.1h-6.2V59.4z"/>
			<path class="st0" d="M444.6,59.9c-6.8,0-11.8-4.9-11.8-13.1s5-13.1,11.8-13.1c6.9,0,11.9,4.9,11.9,13.1S451.5,59.9,444.6,59.9z
				 M444.6,38.8c-3.7,0-5.7,3.3-5.7,8c0,4.6,2,8,5.7,8c3.9,0,5.8-3.3,5.8-8C450.5,42.2,448.4,38.8,444.6,38.8z"/>
			<path class="st0" d="M476.8,59.4V42.9c0-2.2-0.9-3.7-3.2-3.7c-2,0-3.9,1.2-5.7,3.2v17h-6.2V34.2h5.3l0.6,3.5
				c2.3-2.2,5-4.1,8.4-4.1c4.7,0,7.2,2.9,7.2,7.5v18.1h-6.4L476.8,59.4L476.8,59.4z"/>
			<path class="st0" d="M497.8,59.9c-3.6,0-7.4-1.1-9.8-2.4l0.8-5.2c2.7,1.8,6,3,9.2,3c2.7,0,4.2-1,4.2-2.7c0-1.8-1.1-2.5-5.1-3.5
				c-6.1-1.6-8.6-3.3-8.6-7.9c0-4.4,3.4-7.4,9.3-7.4c3.3,0,6.3,0.7,8.8,1.8l-0.8,5.2c-2.5-1.4-5.5-2.3-8-2.3c-2.3,0-3.5,0.9-3.5,2.3
				c0,1.4,0.9,2.1,4.7,3.1c6.5,1.7,9.1,3.4,9.1,8.2C507.9,56.9,504.4,59.9,497.8,59.9z"/>
		</g>
		<text transform="matrix(1 0 0 1 509.6533 59.3611)" class="st0 st1 st2"> </text>
		<g>
			<path class="st3" d="M549.2,59.7l-6.1-6.1c-3.2,4.1-7.5,6.3-12.5,6.3c-7.4,0-12.1-4.1-12.1-10.2c0-5.7,3.8-9.1,9.1-11.6
				c-2.7-2.8-4-5.1-4-8.6c0-4.9,3.7-8.8,9.9-8.8c3.4,0,6.3,0.9,9,2.4l-0.7,3.8c-2.9-1.8-5.7-2.9-8.4-2.9c-3.9,0-6,2.3-6,5.3
				c0,2.7,1.2,4.6,4,7.5L542.5,48c1.4-2.9,2.5-6.5,3.1-11l3.5,0.7c-0.9,5.1-2.3,9.3-4.1,12.7l8,8.1L549.2,59.7z M540.8,51.3
				l-10.9-10.8c-4.7,2-7.4,5-7.4,9c0,4.2,3.4,7.3,8.3,7.3C534.6,56.7,538.1,55,540.8,51.3z"/>
		</g>
		<g>
			<path class="st0" d="M574.2,23.3h7.3l13.2,35.2l-6.9,1.2l-3.4-9.5h-13.6l-3.1,9.1h-6.9L574.2,23.3z M572.6,44.6h9.8l-4.8-13.9
				L572.6,44.6z"/>
			<path class="st0" d="M605.2,44.9v14.4H599V34.2h5.3l0.8,5.1c1.7-2.9,4.2-5.4,8.1-5.6l1,6.2C610.2,40.1,607,42.2,605.2,44.9z"/>
			<path class="st0" d="M628,59.8c-7,0-11.9-4.7-11.9-12.9c0-8.7,5.5-13.2,12.3-13.2c3.3,0,5.9,1,7.7,2.1l-0.9,5.6
				c-2-1.5-4-2.3-6.5-2.3c-3.7,0-6.3,2.7-6.3,7.7c0,5.2,2.9,7.7,6.5,7.7c2.2,0,4.3-0.6,6.6-2.4l0.8,5.4C634,59,631.4,59.8,628,59.8z
				"/>
			<path class="st0" d="M656.6,59.4V42.9c0-2.2-0.9-3.7-3.2-3.7c-2,0-3.9,1.2-5.7,3.2v17h-6.2V22.8l6.2-1v15.6
				c2.1-1.9,4.7-3.7,8-3.7c4.7,0,7.2,2.9,7.2,7.5v18.1L656.6,59.4L656.6,59.4z"/>
			<path class="st0" d="M672.5,30c-2.1,0-3.7-1.5-3.7-3.5c0-2.1,1.7-3.6,3.7-3.6s3.7,1.5,3.7,3.6C676.2,28.5,674.5,30,672.5,30z
				 M669.3,59.4V34.2h6.2v25.1h-6.2V59.4z"/>
			<path class="st0" d="M694.8,59.5h-6.2l-8.7-24.8l6.6-0.8l5.5,17.9l5.4-17.5h6.2L694.8,59.5z"/>
			<path class="st0" d="M717.9,59.9c-7,0-12.3-4-12.3-13.1c0-8.2,4.9-13.1,11.5-13.1c7.5,0,10.9,5.7,10.9,12.8
				c0,0.5-0.1,1.1-0.1,1.5h-16.2c0.3,4.9,3,7,6.8,7c3.2,0,5.9-1.2,8.6-3.1l0.7,4.9C725.2,58.7,722,59.9,717.9,59.9z M711.9,44.1h10
				c-0.4-3.9-2-6.1-5-6.1C714.4,38,712.3,40,711.9,44.1z"/>
			<path class="st0" d="M741.5,59.9c-3.6,0-7.4-1.1-9.8-2.4l0.8-5.2c2.7,1.8,6,3,9.2,3c2.7,0,4.2-1,4.2-2.7c0-1.8-1.1-2.5-5.1-3.5
				c-6.1-1.6-8.6-3.3-8.6-7.9c0-4.4,3.4-7.4,9.3-7.4c3.3,0,6.3,0.7,8.8,1.8l-0.8,5.2c-2.5-1.4-5.5-2.3-8-2.3c-2.3,0-3.5,0.9-3.5,2.3
				c0,1.4,0.9,2.1,4.7,3.1c6.5,1.7,9.1,3.4,9.1,8.2C751.7,56.9,748.2,59.9,741.5,59.9z"/>
		</g>
	</g>
	<g>
		<rect class="st3" width="84.6" height="84.6"/>
		<g>
			<path class="st4" d="M24.6,38h-8.4V11.5h8.4c9.2,0,14,5.4,14,13.2C38.6,32.6,33.7,38,24.6,38z M24.6,15.7h-3.3v18.1h3.2
				c5.6,0,8.9-2.8,8.9-9.1C33.4,18.6,29.9,15.7,24.6,15.7z"/>
			<path class="st4" d="M60.1,38.4c-7.7,0-12.5-5.4-12.5-13.7c0-8.2,5-13.8,12.7-13.8c3,0,5.3,0.7,7.3,1.9l-0.7,4.8
				c-1.7-1.3-3.8-2.3-6.3-2.3c-4.8,0-7.7,3.6-7.7,9.3c0,5.8,3,9.3,7.8,9.3c2.5,0,4.7-0.9,6.7-2.3l0.7,4.5
				C65.9,37.5,63.2,38.4,60.1,38.4z"/>
		</g>
		<text transform="matrix(1 0 0 1 13.414 73.9734)" class="st4 st1 st5 st6"> </text>
		<text transform="matrix(1 0 0 1 32.814 73.9734)" class="st4 st1 st5"> </text>
		<g>
			<path class="st4" d="M36.7,74.2l-4.3-4.3c-2.3,3-5.4,4.5-8.9,4.5c-5.3,0-8.6-2.9-8.6-7.3c0-4.1,2.7-6.5,6.5-8.3
				c-1.9-2-2.9-3.7-2.9-6.1c0-3.5,2.7-6.3,7.1-6.3c2.4,0,4.5,0.6,6.4,1.7l-0.5,2.7c-2-1.3-4.1-2-6-2c-2.8,0-4.3,1.7-4.3,3.8
				c0,1.9,0.8,3.3,2.9,5.4l8,8c1-2,1.8-4.6,2.2-7.8l2.5,0.5c-0.6,3.6-1.6,6.7-3,9.1l5.7,5.8L36.7,74.2z M30.6,68.2l-7.8-7.8
				c-3.4,1.4-5.3,3.6-5.3,6.4c0,3,2.4,5.2,5.9,5.2C26.2,72.1,28.7,70.9,30.6,68.2z"/>
		</g>
		<g>
			<path class="st4" d="M56.2,47.4h5.4l9.7,26l-5.1,0.9l-2.5-7h-10L51.4,74h-5.1L56.2,47.4z M55,63.1h7.2l-3.6-10.3L55,63.1z"/>
		</g>
	</g>
</g>
</svg>
