<?xml version="1.0" encoding="utf-8"?>
<!-- Generator: Adobe Illustrator 21.0.0, SVG Export Plug-In . SVG Version: 6.00 Build 0)  -->
<svg version="1.1" id="Layer_1" xmlns="http://www.w3.org/2000/svg" xmlns:xlink="http://www.w3.org/1999/xlink" x="0px" y="0px"
	 viewBox="0 0 481.5 102.8" style="enable-background:new 0 0 481.5 102.8;" xml:space="preserve">
<style type="text/css">
	.st0{fill:#346094;}
	.st1{font-family:'ArialMT';}
	.st2{font-size:52.0648px;}
	.st3{fill:#00B0B9;}
	.st4{fill:#FFFFFF;}
	.st5{font-size:38.4204px;}
	.st6{letter-spacing:8;}
</style>
<g>
	<path class="st0" d="M122.8,34.8h-10.6V1.5h10.6c11.6,0,17.6,6.8,17.6,16.6C140.3,28,134.1,34.8,122.8,34.8z M122.7,6.7h-4.1v22.8
		h4.1c7,0,11.2-3.6,11.2-11.4C133.8,10.5,129.4,6.7,122.7,6.7z"/>
	<path class="st0" d="M148.8,7.6c-1.9,0-3.5-1.4-3.5-3.3c0-2,1.5-3.4,3.5-3.4c1.9,0,3.4,1.4,3.4,3.4C152.2,6.2,150.7,7.6,148.8,7.6z
		 M145.8,34.8V11.5h5.8v23.3H145.8z"/>
	<path class="st0" d="M166.4,43.6c-6.3,0-11.1-1.9-11.1-5.8c0-2.2,1.5-3.9,4.4-5.5c-0.9-0.7-1.4-1.6-1.4-2.6c0-1.3,1-2.6,2.9-3.7
		c-2.7-1.3-4.4-3.8-4.4-6.9c0-5.1,4.1-8.2,9.4-8.2c2.7,0,4.9,0.8,6.6,2.2l5.7-2l0.8,4.6l-4.2,0.3c0.4,0.9,0.6,2,0.6,3
		c0,5-4.3,8-9.3,8c-0.7,0-1.4,0-1.9-0.1c-0.6,0.4-0.9,0.8-0.9,1.2c0,0.8,0.7,1,4.3,1.5l3,0.3c4.8,0.7,7.8,2.2,7.8,5.7
		C178.6,40.8,173.1,43.6,166.4,43.6z M162.8,33.7c-1.7,1.2-2.5,2.3-2.5,3.5c0,1.7,2.1,3,6.5,3c4.1,0,6.5-1.4,6.5-3.1
		c0-1.3-1-2-3.9-2.4l-3.1-0.4C164.7,34,163.9,33.9,162.8,33.7z M166.3,14.7c-2.6,0-4.1,2-4.1,4.5c0,2.4,1.5,4.2,4.1,4.2
		s4.1-1.9,4.1-4.4C170.4,16.6,168.8,14.7,166.3,14.7z"/>
	<path class="st0" d="M186,7.6c-1.9,0-3.5-1.4-3.5-3.3c0-2,1.5-3.4,3.5-3.4c1.9,0,3.4,1.4,3.4,3.4C189.4,6.2,187.9,7.6,186,7.6z
		 M183,34.8V11.5h5.8v23.3H183z"/>
	<path class="st0" d="M203.8,35.2c-4.6,0-7.7-1.7-7.7-7v-12h-3.3v-4.7h3.3V4.1l5.7-0.9v8.3h4.8l0.7,4.7h-5.5v11
		c0,1.9,0.9,2.9,3.1,2.9c0.7,0,1.3,0,1.8-0.2l0.7,4.9C206.6,35,205.5,35.2,203.8,35.2z"/>
	<path class="st0" d="M225.4,34.8l-0.5-3c-1.9,2-4.3,3.5-7.8,3.5c-4,0-6.6-2.4-6.6-6.5c0-5.6,4.6-8.1,14-9v-0.7c0-2.5-1.4-3.5-4-3.5
		c-2.7,0-5.3,0.8-7.8,1.9l-0.7-4.6c2.7-1.1,5.5-1.9,9.3-1.9c6,0,9,2.2,9,7.8v16C230.3,34.8,225.4,34.8,225.4,34.8z M224.6,23.1
		c-6.7,0.8-8.3,2.8-8.3,5c0,1.7,1.1,2.7,2.8,2.7c2,0,3.9-0.9,5.5-2.5V23.1z"/>
	<path class="st0" d="M236.3,34.8V0.9l5.8-0.9v34.8H236.3z"/>
	<path class="st0" d="M273.6,35.4c-9.6,0-15.7-6.8-15.7-17.2c0-10.3,6.2-17.3,15.9-17.3c3.8,0,6.7,0.9,9.1,2.4l-0.9,6
		c-2.2-1.6-4.7-2.9-8-2.9c-6,0-9.6,4.5-9.6,11.7s3.8,11.7,9.7,11.7c3.1,0,5.9-1.2,8.4-2.9l0.9,5.6C280.8,34.2,277.4,35.4,273.6,35.4
		z"/>
	<path class="st0" d="M297.7,35.3c-6.3,0-10.9-4.5-10.9-12.1s4.6-12.2,11-12.2s11,4.6,11,12.2C308.7,30.7,304,35.3,297.7,35.3z
		 M297.7,15.7c-3.4,0-5.3,3.1-5.3,7.4c0,4.2,1.9,7.4,5.3,7.4c3.6,0,5.4-3,5.4-7.4C303.1,18.9,301.1,15.7,297.7,15.7z"/>
	<path class="st0" d="M313.6,34.8V0.9l5.8-0.9v34.8H313.6z"/>
	<path class="st0" d="M325.8,34.8V0.9l5.8-0.9v34.8H325.8z"/>
	<path class="st0" d="M347.9,35.3c-6.5,0-11.4-3.7-11.4-12.1c0-7.6,4.5-12.2,10.6-12.2c7,0,10.1,5.3,10.1,11.9c0,0.5,0,1.1,0,1.4
		h-15c0.3,4.6,2.7,6.5,6.3,6.5c3,0,5.5-1.1,8-2.9l0.7,4.5C354.7,34.1,351.6,35.3,347.9,35.3z M342.3,20.6h9.3
		c-0.4-3.6-1.8-5.6-4.6-5.6C344.6,15,342.7,16.9,342.3,20.6z"/>
	<path class="st0" d="M371.8,35.2c-6.5,0-11-4.3-11-12c0-8.1,5.1-12.3,11.4-12.3c3,0,5.5,0.9,7.1,2l-0.8,5.2c-1.9-1.4-3.7-2.2-6-2.2
		c-3.4,0-5.8,2.5-5.8,7.1c0,4.8,2.7,7.1,6,7.1c2,0,4-0.6,6.1-2.2l0.8,5C377.3,34.5,374.8,35.2,371.8,35.2z"/>
	<path class="st0" d="M393,35.2c-4.6,0-7.7-1.7-7.7-7v-12H382v-4.7h3.3V4.1l5.7-0.9v8.3h4.8l0.7,4.7H391v11c0,1.9,0.9,2.9,3.1,2.9
		c0.7,0,1.3,0,1.8-0.2l0.7,4.9C395.7,35,394.7,35.2,393,35.2z"/>
	<path class="st0" d="M404.2,7.6c-1.9,0-3.5-1.4-3.5-3.3c0-2,1.5-3.4,3.5-3.4c1.9,0,3.4,1.4,3.4,3.4C407.6,6.2,406.1,7.6,404.2,7.6z
		 M401.2,34.8V11.5h5.8v23.3H401.2z"/>
	<path class="st0" d="M422.8,35.3c-6.3,0-10.9-4.5-10.9-12.1s4.6-12.2,11-12.2s11,4.6,11,12.2C433.9,30.7,429.2,35.3,422.8,35.3z
		 M422.8,15.7c-3.4,0-5.3,3.1-5.3,7.4c0,4.2,1.9,7.4,5.3,7.4c3.6,0,5.4-3,5.4-7.4C428.2,18.9,426.3,15.7,422.8,15.7z"/>
	<path class="st0" d="M452.7,34.8V19.5c0-2-0.9-3.4-3-3.4c-1.8,0-3.6,1.2-5.3,2.9v15.7h-5.8V11.5h4.9l0.5,3.3
		c2.2-2.1,4.6-3.8,7.8-3.8c4.3,0,6.7,2.7,6.7,7v16.8H452.7z"/>
	<path class="st0" d="M472.1,35.3c-3.4,0-6.8-1.1-9.1-2.3l0.8-4.8c2.5,1.6,5.6,2.7,8.5,2.7c2.5,0,3.9-0.9,3.9-2.5s-1-2.3-4.7-3.2
		c-5.6-1.4-8-3.1-8-7.3c0-4.1,3.2-6.9,8.6-6.9c3,0,5.8,0.6,8.2,1.6l-0.9,4.9c-2.3-1.3-5.1-2.1-7.4-2.1c-2.2,0-3.2,0.9-3.2,2.1
		c0,1.3,0.9,2,4.3,2.9c6,1.5,8.4,3.2,8.4,7.6C481.5,32.5,478.2,35.3,472.1,35.3z"/>
</g>
<text transform="matrix(1 0 0 1 94.532 85.9282)" class="st0 st1 st2"> </text>
<g>
	<g>
		<path class="st3" d="M137.8,85.7l-5.6-5.6c-3,3.8-6.9,5.9-11.6,5.9c-6.9,0-11.2-3.8-11.2-9.5c0-5.3,3.5-8.5,8.4-10.7
			c-2.5-2.6-3.7-4.7-3.7-8c0-4.5,3.5-8.2,9.2-8.2c3.1,0,5.9,0.8,8.3,2.2l-0.7,3.5c-2.7-1.7-5.3-2.7-7.8-2.7c-3.6,0-5.6,2.1-5.6,4.9
			c0,2.5,1.1,4.3,3.7,7l10.3,10.4c1.3-2.7,2.3-6,2.9-10.1l3.2,0.7c-0.8,4.7-2.1,8.6-3.8,11.8l7.4,7.5L137.8,85.7z M130,77.9
			l-10.1-10c-4.4,1.8-6.9,4.6-6.9,8.3c0,3.9,3.1,6.8,7.6,6.8C124.2,83,127.5,81.4,130,77.9z"/>
	</g>
	<g>
		<path class="st0" d="M160.9,52h6.8l12.2,32.6l-6.4,1.2l-3.2-8.8h-12.6l-2.9,8.4h-6.4L160.9,52z M159.4,71.8h9.1L164,58.9
			L159.4,71.8z"/>
		<path class="st0" d="M189.6,72.1v13.4h-5.8V62.1h4.9l0.7,4.7c1.5-2.7,3.9-5,7.5-5.2l0.9,5.7C194.3,67.6,191.3,69.6,189.6,72.1z"/>
		<path class="st0" d="M210.8,85.9c-6.5,0-11-4.3-11-12c0-8.1,5.1-12.3,11.4-12.3c3,0,5.5,0.9,7.1,2l-0.8,5.2
			c-1.9-1.4-3.7-2.2-6-2.2c-3.4,0-5.8,2.5-5.8,7.1c0,4.8,2.7,7.1,6,7.1c2,0,4-0.6,6.1-2.2l0.8,5C216.3,85.1,213.9,85.9,210.8,85.9z"
			/>
		<path class="st0" d="M237.3,85.4V70.2c0-2-0.9-3.4-3-3.4c-1.8,0-3.6,1.2-5.3,2.9v15.7h-5.8V51.5l5.8-0.9v14.5
			c1.9-1.8,4.3-3.4,7.4-3.4c4.3,0,6.7,2.7,6.7,7v16.8L237.3,85.4L237.3,85.4z"/>
		<path class="st0" d="M252,58.2c-1.9,0-3.5-1.4-3.5-3.3c0-2,1.5-3.4,3.5-3.4c1.9,0,3.4,1.4,3.4,3.4C255.4,56.9,253.9,58.2,252,58.2
			z M249.1,85.4V62.1h5.8v23.3C254.9,85.4,249.1,85.4,249.1,85.4z"/>
		<path class="st0" d="M272.7,85.6H267l-8.1-23l6.1-0.8l5.1,16.5l5-16.2h5.8L272.7,85.6z"/>
		<path class="st0" d="M294.1,85.9c-6.5,0-11.4-3.7-11.4-12.1c0-7.6,4.5-12.2,10.6-12.2c7,0,10.1,5.3,10.1,11.9c0,0.5,0,1.1,0,1.4
			h-15c0.3,4.6,2.7,6.5,6.3,6.5c3,0,5.5-1.1,8-2.9l0.7,4.5C300.9,84.8,297.8,85.9,294.1,85.9z M288.5,71.3h9.3
			c-0.4-3.6-1.8-5.6-4.6-5.6C290.8,65.6,288.9,67.5,288.5,71.3z"/>
		<path class="st0" d="M316,85.9c-3.4,0-6.8-1.1-9.1-2.3l0.8-4.8c2.5,1.6,5.6,2.7,8.5,2.7c2.5,0,3.9-0.9,3.9-2.5s-1-2.3-4.7-3.2
			c-5.6-1.4-8-3.1-8-7.3c0-4.1,3.2-6.9,8.6-6.9c3,0,5.8,0.6,8.2,1.6l-0.8,4.8c-2.3-1.3-5.1-2.1-7.4-2.1c-2.2,0-3.2,0.9-3.2,2.1
			c0,1.3,0.9,2,4.3,2.9c6,1.5,8.4,3.2,8.4,7.6C325.4,83.2,322.1,85.9,316,85.9z"/>
	</g>
</g>
<g>
	<rect y="1.4" class="st3" width="84.6" height="84.6"/>
	<g>
		<path class="st4" d="M24.7,39.4h-8.4V12.9h8.4c9.2,0,14,5.4,14,13.2C38.7,34,33.7,39.4,24.7,39.4z M24.7,17.1h-3.3v18.1h3.2
			c5.6,0,8.9-2.8,8.9-9.1C33.5,20,30,17.1,24.7,17.1z"/>
		<path class="st4" d="M60.2,39.8c-7.7,0-12.5-5.4-12.5-13.7c0-8.2,5-13.8,12.7-13.8c3,0,5.3,0.7,7.3,1.9L67,19
			c-1.7-1.3-3.8-2.3-6.3-2.3c-4.8,0-7.7,3.6-7.7,9.3c0,5.8,3,9.3,7.8,9.3c2.5,0,4.7-0.9,6.7-2.3l0.7,4.5
			C66,38.9,63.2,39.8,60.2,39.8z"/>
	</g>
	<text transform="matrix(1 0 0 1 13.4794 75.3734)" class="st4 st1 st5 st6"> </text>
	<text transform="matrix(1 0 0 1 32.8794 75.3734)" class="st4 st1 st5"> </text>
	<g>
		<path class="st4" d="M36.7,75.6l-4.3-4.3c-2.3,3-5.4,4.5-8.9,4.5c-5.3,0-8.6-2.9-8.6-7.3c0-4.1,2.7-6.5,6.5-8.3
			c-1.9-2-2.9-3.7-2.9-6.1c0-3.5,2.7-6.3,7.1-6.3c2.4,0,4.5,0.6,6.4,1.7l-0.6,2.7c-2-1.3-4.1-2-6-2c-2.8,0-4.3,1.7-4.3,3.8
			c0,1.9,0.8,3.3,2.9,5.4l8,8c1-2,1.8-4.6,2.2-7.8l2.5,0.5c-0.6,3.6-1.6,6.7-3,9.1l5.7,5.8L36.7,75.6z M30.7,69.6l-7.8-7.8
			c-3.4,1.4-5.3,3.6-5.3,6.4c0,3,2.4,5.2,5.9,5.2C26.2,73.5,28.8,72.3,30.7,69.6z"/>
	</g>
	<g>
		<path class="st4" d="M56.3,48.8h5.4l9.7,26l-5.1,0.9l-2.5-7h-10l-2.4,6.7h-5.1L56.3,48.8z M55.1,64.5h7.2l-3.6-10.3L55.1,64.5z"/>
	</g>
</g>
</svg>
